<?xml version="1.0" ?><!DOCTYPE svg  PUBLIC '-//W3C//DTD SVG 1.1//EN'  'http://www.w3.org/Graphics/SVG/1.1/DTD/svg11.dtd'><svg enable-background="new -26.5 23 100 100" id="malecostume_1_" version="1.1" viewBox="-26.5 23 100 100" xml:space="preserve" xmlns="http://www.w3.org/2000/svg" xmlns:sketch="http://www.bohemiancoding.com/sketch/ns" xmlns:xlink="http://www.w3.org/1999/xlink"><g><rect fill="#F5EEE5" height="100" width="100" x="-26.5" y="23"/><path d="M38.5,98.9l27.9,7.7c3.2,1.1,5.7,3.5,7.1,6.6v9.8h-100v-9.8c1.3-3.1,3.9-5.5,7.1-6.6l27.9-7.7V84h30V98.9z    " fill="#D4B08C"/><g><defs><path d="M38.5,98.9l27.9,7.7c3.2,1.1,5.7,3.5,7.1,6.6v9.8h-100v-9.8c1.3-3.1,3.9-5.5,7.1-6.6l27.9-7.7V84h30V98.9      z" id="SVGID_1_"/></defs><clipPath id="SVGID_2_"><use overflow="visible" xlink:href="#SVGID_1_"/></clipPath><polygon clip-path="url(#SVGID_2_)" fill="#1E1E23" points="23.7,103 16.5,103 11.7,98 -26.5,98 -26.5,123 23.7,123 73.8,123      73.8,98 35.7,98 30.9,103    "/><polygon clip-path="url(#SVGID_2_)" fill="#C1CAD4" points="23.5,103 24.5,103 39.2,95.3 33.4,124.2 23.5,123.1 13.6,124.2      7.8,95.3 22.5,103    "/><polygon clip-path="url(#SVGID_2_)" fill="#216DD9" points="21,112 26,112 30,124 17,124    "/><polygon clip-path="url(#SVGID_2_)" fill="#249CF2" points="13,103 34,103 26,112 21,112    "/><path clip-path="url(#SVGID_2_)" d="M39,93l-14.4,10l10.8,11l4.1-20L39,93z M8,93l14.4,10l-10.8,11L7.5,94L8,93z" fill="#FFFFFF"/></g><path d="M23.5,97c-1.5,0-3.5-0.3-4.8-0.9c-1.6-0.7-7.2-4.6-9.1-6.3c-2.5-2.3-3.8-5.1-4.2-10S3.5,57.5,3.5,53.5    C3.5,47.8,8.6,39,23.5,39l0,0l0,0l0,0l0,0c14.8,0,19.9,8.8,19.9,14.5c0,4-1.5,21.5-1.9,26.4s-1.6,7.7-4.2,10    c-1.9,1.7-7.6,5.6-9.1,6.3C27,96.7,25,97,23.5,97L23.5,97z" fill="#F2CEA5"/><path d="M30.5,83l-14,0c-0.4,0-0.6,0.4-0.4,0.8c1.3,2.3,3.7,3.5,6.7,3.7c3.1,0.2,6.5-1.3,8.1-3.7    C31.1,83.5,30.9,83,30.5,83z" fill="#A3705F"/><circle cx="32.5" cy="68" fill="#262626" r="2"/><circle cx="14.5" cy="68" fill="#262626" r="2"/><path d="M20.1,65.5c-0.5-0.8-1.9-2.5-5.5-2.5c-4.1,0-5.1,2.3-5.1,2.4l-1.9-0.7c0.1-0.1,1.4-3.6,7-3.6    c4.6,0,6.6,2.4,7.2,3.5L20.1,65.5z" fill="#CC9872"/><path d="M24.5,76c0-0.3,0-7.1,0-9c0-2.5,2.5-5.9,8-6c5.5,0,6.9,3.5,7,3.6l-1.9,0.7c0-0.1-1-2.3-5.1-2.4    c-4.1,0-6,2.4-6,4c0,1.9,0,8.9,0,9L24.5,76z" fill="#BB8660"/><path d="M42.3,71.2c0,0,0.8-6.3,3.7-7.2c0.4-1.8,1.5-7,1.5-9.9s-0.3-5.7-1.9-8.1c-1.8-2.6-5.6-4.1-7.6-4.1    c-2.3,1.4-7.7,4.6-9.4,6.5c-0.9,1,0.4,1.8,0.4,1.8s1.2-0.5,1.7-0.6c2.5-0.7,8-1.2,9.7,1.3c2.1,3,2.1,11.8,2.1,13.1    C42.5,65.2,42.3,71.2,42.3,71.2z" fill="#D98C21"/><path d="M1,64c2.9,1,3.7,7.2,3.7,7.2s-0.2-6-0.2-7.2c0-1.6,0.2-9.1,3.4-12.7c3.6-4,8.4-5.3,11.1-3.5    c1.4,0.9,6.1,5.5,11.1,1.7c3-2.3,8.5-7.5,8.5-7.5s-2.9-8.9-16.1-7.9c-5.6,0.5-11.8-0.9-11.8-0.9s-0.1,2.5,0.9,3.8    C3.3,39.4,0.6,45.4-0.2,50c-0.2,0.9-0.3,1.8-0.3,2.7c0,0.5,0,1,0,1.4C-0.5,57,0.6,62.1,1,64z" fill="#E6A422"/></g></svg>