<svg xmlns="http://www.w3.org/2000/svg" xmlns:xlink="http://www.w3.org/1999/xlink" version="1.1" x="0px" y="0px" viewBox="-0.5 -0.5 100 125" enable-background="new -0.5 -0.5 100 100" xml:space="preserve"><path d="M29.7,50.6l9.1,5.2l0,0L29.7,50.6L29.7,50.6z M81.3,52.7c0.6,2.5,0.9,5,0.9,7.6c0,18-14.7,32.7-32.7,32.7  S16.8,78.3,16.8,60.3c0-2.5,0.3-5,0.9-7.4c-1.4-1.6-2.2-3.6-2.2-5.9c0-5,4-9,9-9c0.4,0,0.8,0,1.1,0.1c3.1-3.3,6.8-5.9,10.9-7.7  c0.5-0.2,1.1,0,1.3,0.5s0,1.1-0.5,1.3c-3.5,1.5-6.8,3.7-9.5,6.5c0.5,0.2,0.9,0.4,1.3,0.7l11.3-6.1c0-0.1,0-0.1,0-0.2  c0-4.6,3.5-8.4,7.9-8.9v-1.7h-3c-0.6,0-1-0.4-1-1v-3c0-0.6,0.4-1,1-1h4c0.6,0,1,0.4,1,1V24c4.5,0.5,8.1,4.3,8.1,8.9  c0,0.1,0,0.2,0,0.2l11.2,6.1c0.5-0.3,0.9-0.5,1.4-0.7c-2.7-2.7-5.9-4.9-9.5-6.4c-0.5-0.2-0.7-0.8-0.5-1.3s0.8-0.7,1.3-0.5  c4.2,1.8,7.8,4.4,10.9,7.7c0.3,0,0.6-0.1,1-0.1c5,0,9,4,9,9C83.4,49.2,82.7,51.2,81.3,52.7z M67.4,47c0,0.7,0.1,1.5,0.3,2.1l0,0  l2.1-1.2c1.3-0.7,2.9-0.3,3.6,1c0.3,0.6,0.4,1.3,0.2,2c-0.2,0.7-0.6,1.2-1.2,1.6l-1.2,0.7c1,0.5,2,0.8,3.1,0.8c3.9,0,7-3.1,7-7  s-3.1-7-7-7S67.4,43.1,67.4,47z M74.4,56L74.4,56l-1,10.6c0,0.3,0.2,0.5,0.5,0.5c0.2,0,0.4-0.1,0.5-0.2c0.1-0.2,0.1-0.3,0.1-0.4  l0.9-10.6C75.1,56,74.8,56,74.4,56z M65,73.8c-0.3-0.9-0.5-1.8-0.5-2.8c0-0.4,0.1-0.9,0.1-1.3L60,66.9c-1.4,2.5-3.7,4.5-6.5,5.4  l1,4.8c0.6,0.4,1.2,0.9,1.7,1.5L65,73.8z M57.3,80.2c0.2,0.4,0.4,0.8,0.5,1.2l11.5-6.2c0.2-0.1,0.3-0.2,0.3-0.4c0.1-0.2,0-0.3,0-0.5  C69.5,74.1,69.3,74,69,74c-0.1,0-0.2,0-0.3,0.1L57.3,80.2z M55.2,80.5l1.1,5.3c0.1-0.5,0.2-0.9,0.2-1.4C56.4,83,56,81.6,55.2,80.5z   M44.6,77.1l1-4.8c-2.8-1-5.1-3-6.5-5.5l-4.7,2.9c0.1,0.4,0.1,0.9,0.1,1.3c0,1-0.2,1.9-0.5,2.8l8.9,4.8C43.4,78,44,77.5,44.6,77.1z   M42.7,84.4c0,0.5,0.1,0.9,0.2,1.4l1.1-5.3C43.2,81.6,42.7,83,42.7,84.4z M30.2,74c-0.1,0-0.2-0.1-0.3-0.1c-0.2,0-0.5,0.1-0.6,0.3  c-0.1,0.2-0.1,0.3,0,0.5s0.2,0.3,0.3,0.4l11.6,6.3c0.1-0.4,0.3-0.8,0.5-1.2L30.2,74z M39.6,61c0,4.2,2.6,7.9,6.4,9.3l0.5-2.8v-3  c0-0.6,0.4-1,1-1s1,0.4,1,1v2h2v-2c0-0.6,0.4-1,1-1s1,0.4,1,1v3l0.7,2.8c3.8-1.5,6.4-5.2,6.4-9.3c0-5.5-4.5-10-10-10  S39.6,55.5,39.6,61z M49.6,49c0.3,0,0.6,0,0.9,0V38.5c0-0.6-0.4-1-1-1s-1,0.4-1,1V49C48.9,49,49.2,49,49.6,49z M65.4,47  c0-1.3,0.3-2.5,0.8-3.6l-9.4-5.1c-1.1,1.4-2.5,2.6-4.3,3.2v7.9c2.8,0.7,5.2,2.4,6.8,4.7l6.7-3.8l0,0C65.6,49.1,65.4,48.1,65.4,47z   M60.4,55.7c0.2,0.4,0.4,0.8,0.5,1.2l10.6-6.1c0.2-0.1,0.3-0.2,0.3-0.4s0-0.3-0.1-0.5c-0.2-0.3-0.6-0.4-0.9-0.2L60.4,55.7z   M51.8,73.5l-0.3-1.2l-1.7,1.2H51.8z M48.6,78.5h4.1l-0.1-0.6l0,0l-0.4-2L48.6,78.5z M51.1,70.2l-0.3-1.7h-2.4l-0.8,4.1L51.1,70.2z   M47,75.5l-0.4,2l2.8-2H47z M46,80.5l-0.5,2.3l4.1-2.3H46z M48.4,83.5h5.4l-0.5-2.7L48.4,83.5z M46.5,41.5c-1.7-0.6-3.2-1.7-4.2-3.2  l-9.5,5.1c0.5,1.1,0.8,2.3,0.8,3.6c0,1.1-0.2,2.2-0.6,3.2l0,0l6.8,3.9c1.6-2.3,4-4,6.7-4.7V41.5z M29.7,50.6L29.7,50.6l-1.4-0.8  c-0.3-0.2-0.7-0.1-0.9,0.2c-0.1,0.1-0.1,0.3-0.1,0.5s0.2,0.3,0.3,0.4L38.3,57c0.1-0.4,0.3-0.8,0.5-1.2l0,0l0,0L29.7,50.6z   M29.7,54.4c-0.9,0.6-2,1.1-3,1.4l0.7,7.3c1.7,0.2,3.3,0.9,4.6,2l5.7-3.5c0-0.2,0-0.4,0-0.5c0-0.7,0.1-1.3,0.2-2L29.7,54.4z   M30.2,69.2c0.1,0.2,0.3,0.3,0.5,0.3c0.1,0,0.2,0,0.4-0.1l7.1-4.4c-0.1-0.4-0.3-0.8-0.4-1.3l-7.4,4.6c-0.1,0.1-0.2,0.2-0.3,0.4  C30.1,68.8,30.2,69,30.2,69.2z M44.8,86.5h9.6l-0.2-1H45L44.8,86.5z M67.9,69.4c0.1,0.1,0.3,0.1,0.4,0.1c0.2,0,0.4-0.1,0.5-0.3  c0.1-0.1,0.1-0.3,0.1-0.5s-0.1-0.3-0.3-0.4l-7.3-4.5c-0.1,0.4-0.2,0.8-0.4,1.3L67.9,69.4z M71.7,63l0.7-7.3c-1.1-0.3-2.1-0.7-3-1.4  l-7.9,4.6c0.1,0.7,0.2,1.4,0.2,2.1c0,0.2,0,0.4,0,0.6l5.6,3.4C68.4,63.9,70,63.2,71.7,63z M55.4,33.8c-0.2-0.1-0.3-0.1-0.5-0.1  s-0.3,0.2-0.4,0.3c-0.2,0.3-0.1,0.7,0.2,0.9l12.5,6.8l0.8-1L55.4,33.8z M48.5,20.5v-1h-2v1H48.5z M42.6,32.1L42.6,32.1  c0.6-0.4,1.4-0.4,2-0.2c0.7,0.2,1.2,0.6,1.6,1.3c0.7,1.3,0.2,2.9-1,3.6L44,37.4c0.7,0.8,1.5,1.5,2.5,2v-0.9c0-1.7,1.3-3,3-3  s3,1.3,3,3v0.8c1-0.5,1.9-1.1,2.5-2l-1.2-0.7c-1.3-0.7-1.7-2.3-1-3.6c0.3-0.6,0.9-1.1,1.6-1.3c0.7-0.2,1.4-0.1,2,0.2l0.1,0.1  c-0.4-3.5-3.4-6.1-6.9-6.1C46,26,43.1,28.6,42.6,32.1z M30.9,40.7l0.8,1l12.5-6.8c0.3-0.2,0.4-0.6,0.2-0.9c-0.1-0.1-0.2-0.3-0.4-0.3  s-0.3,0-0.5,0.1L30.9,40.7z M24.6,54c1.1,0,2.2-0.3,3.1-0.8l-1.2-0.6c-0.6-0.3-1.1-0.9-1.2-1.6c-0.2-0.7-0.1-1.4,0.2-2  c0.7-1.3,2.3-1.7,3.6-1l2.1,1.2l0,0c0.2-0.7,0.3-1.4,0.3-2.1c0-3.9-3.1-7-7-7s-7,3.1-7,7C17.6,50.8,20.7,54,24.6,54z M24.6,56  L24.6,56c-0.4,0-0.7,0-1,0l0.9,10.5c0,0.1,0,0.2,0.1,0.3c0.1,0.2,0.3,0.2,0.5,0.2c0.3,0,0.5-0.2,0.5-0.5L24.6,56z M19.7,67  c0.6-1.1,1.6-2.1,2.7-2.8l-0.8-8.7c-0.7-0.3-1.4-0.6-2.1-1.1c-0.4,1.9-0.6,3.9-0.6,5.9C18.9,62.6,19.2,64.8,19.7,67z M27.8,78.9  C27.4,79,27,79,26.5,79s-0.9-0.1-1.4-0.1c0.6,0.8,1.2,1.5,1.9,2.3L27.8,78.9z M28.3,76.7c-0.4-0.3-0.7-0.8-0.9-1.3  c-0.2-0.7-0.2-1.4,0.2-2c0.5-0.9,1.4-1.4,2.3-1.4c0.4,0,0.8,0.1,1.2,0.3l1.1,0.6c0.2-0.6,0.3-1.2,0.3-1.8V71l0,0l-0.4,0.2  c-0.5,0.3-1,0.4-1.6,0.4c-0.8-0.1-1.6-0.5-2.1-1.2c-0.4-0.6-0.5-1.3-0.3-2s0.6-1.3,1.2-1.6l0.7-0.4c-0.8-0.6-1.7-0.9-2.6-1.1  l0.1,1.3c0,0,0,0.1,0,0.2c0,1.4-1.1,2.5-2.5,2.5c-0.9,0-1.7-0.4-2.2-1.2c-0.2-0.6-0.3-1.1-0.3-1.5c-1.1,1-1.7,2.3-1.9,3.7  c0.7,2,1.6,3.9,2.6,5.7l0,0C24.8,77,26.7,77.2,28.3,76.7z M40.5,86.5H41c-0.2-0.7-0.3-1.4-0.3-2.1c0-0.3,0-0.6,0.1-0.9l-10.3-5.6  c-0.1,0.1-0.2,0.1-0.3,0.2l-1.5,4.6c2.9,2.7,6.2,4.8,9.9,6.2v-0.5C38.6,87.4,39.4,86.5,40.5,86.5z M58.5,88.5h-18l0.1,1.1  c2.9,0.9,5.9,1.4,9,1.4s6.2-0.5,9-1.4L58.5,88.5z M70.4,82.8l-1.6-4.7c-0.1-0.1-0.2-0.1-0.3-0.2l-10.1,5.5c0,0.3,0.1,0.7,0.1,1  c0,0.7-0.1,1.4-0.3,2.1h0.5c1.1,0,1.9,0.9,1.9,1.9v0.5C64.2,87.5,67.6,85.4,70.4,82.8z M74,78.8c-0.5,0.1-1,0.2-1.6,0.2  c-0.4,0-0.9,0-1.3-0.1l0.8,2.4C72.7,80.5,73.4,79.7,74,78.8z M78.5,70.5c0-0.1-0.1-0.1-0.1-0.2c-0.2-1.5-0.9-2.8-1.9-3.7  c0,0.5-0.1,0.9-0.4,1.3c-0.5,0.7-1.3,1.2-2.2,1.2c-1.4,0-2.5-1.1-2.5-2.5c0-0.1,0-0.2,0-0.2l0.1-1.3c-0.9,0.1-1.8,0.5-2.6,1.1  l0.7,0.4c0.6,0.4,1,1,1.2,1.6c0.2,0.7,0,1.4-0.3,2c-0.4,0.7-1.2,1.2-2.1,1.2c-0.6,0-1.1-0.1-1.6-0.4l-0.3-0.2l0,0v0.1  c0,0.6,0.1,1.3,0.3,1.8l1.1-0.6c0.4-0.2,0.8-0.3,1.2-0.3c1,0,1.9,0.5,2.3,1.4c0.3,0.6,0.4,1.3,0.2,2c-0.2,0.5-0.5,1-0.9,1.3  c1.7,0.5,3.6,0.3,5.1-0.7c0.1,0,0.2-0.1,0.2-0.1C77,74.2,77.8,72.4,78.5,70.5z M80.2,60.3c0-2-0.2-4-0.6-6c-0.7,0.5-1.4,0.9-2.2,1.2  l-0.7,8.7c1.2,0.7,2.1,1.8,2.8,2.9C80,65,80.2,62.7,80.2,60.3z"/><text x="-0.5" y="114.5" fill="#000000" font-size="5px" font-weight="bold" font-family="'Helvetica Neue', Helvetica, Arial-Unicode, Arial, Sans-serif">Created by Fabien Jouin</text><text x="-0.5" y="119.5" fill="#000000" font-size="5px" font-weight="bold" font-family="'Helvetica Neue', Helvetica, Arial-Unicode, Arial, Sans-serif">from the Noun Project</text></svg>