<?xml version="1.0" ?><!DOCTYPE svg  PUBLIC '-//W3C//DTD SVG 1.1//EN'  'http://www.w3.org/Graphics/SVG/1.1/DTD/svg11.dtd'><svg enable-background="new -209 21 100 100" id="Layer_1" version="1.1" viewBox="-209 21 100 100" xml:space="preserve" xmlns="http://www.w3.org/2000/svg" xmlns:sketch="http://www.bohemiancoding.com/sketch/ns" xmlns:xlink="http://www.w3.org/1999/xlink"><g><rect fill="#1E1F24" height="100" width="100" x="-209" y="21"/><path d="M-146,92.9c0,4,4.7,5.2,7.1,5.8c7.6,2,22.8,5.9,22.8,5.9c3.2,1.1,5.7,3.5,7.1,6.6v9.8h-100v-9.8    c1.3-3.1,3.9-5.5,7.1-6.6c0,0,15.2-3.9,22.8-5.9c2.4-0.6,7.1-1.8,7.1-5.8c0-4,0-10.9,0-10.9h26C-146,82-146,88.9-146,92.9z" fill="#E6C19C"/><g><defs><path d="M-146,92.9c0,4,4.7,5.2,7.1,5.8c7.6,2,22.8,5.9,22.8,5.9c3.2,1.1,5.7,3.5,7.1,6.6v9.8h-100v-9.8      c1.3-3.1,3.9-5.5,7.1-6.6c0,0,15.2-3.9,22.8-5.9c2.4-0.6,7.1-1.8,7.1-5.8c0-4,0-10.9,0-10.9h26C-146,82-146,88.9-146,92.9z" id="SVGID_1_"/></defs><clipPath id="SVGID_2_"><use overflow="visible" xlink:href="#SVGID_1_"/></clipPath><path clip-path="url(#SVGID_2_)" d="M-209,79h100v42h-100V79L-209,79z M-159,110c12.1,0,20.8-14.1,20.8-14.1     S-148.1,80-159,80s-20.8,15.9-20.8,15.9S-171.1,110-159,110L-159,110L-159,110z" fill="#2284E6"/></g><g><defs><path d="M-146,92.9c0,4,4.7,5.2,7.1,5.8c7.6,2,22.8,5.9,22.8,5.9c3.2,1.1,5.7,3.5,7.1,6.6v9.8h-100v-9.8      c1.3-3.1,3.9-5.5,7.1-6.6c0,0,15.2-3.9,22.8-5.9c2.4-0.6,7.1-1.8,7.1-5.8c0-4,0-10.9,0-10.9h26C-146,82-146,88.9-146,92.9z" id="SVGID_3_"/></defs><clipPath id="SVGID_4_"><use overflow="visible" xlink:href="#SVGID_3_"/></clipPath><path clip-path="url(#SVGID_4_)" d="M-158.8,32c0.1,0,0.1,0,0.2,0c0,0,0,0,0,0c3.3,0,8.2,0.2,11.4,2     c3.3,1.9,7.3,5.6,8.5,12.1c2.4,13.7-2.1,35.4-6.3,42.4c-4,6.7-9.8,9.2-13.5,9.4c0,0-0.1,0-0.1,0c-0.1,0-0.1,0-0.2,0     c-0.1,0-0.1,0-0.2,0c0,0-0.1,0-0.1,0c-3.7-0.2-9.5-2.7-13.5-9.4c-4.2-7-8.7-28.7-6.3-42.4c1.2-6.5,5.2-10.2,8.5-12.1     c3.2-1.8,8.1-2,11.4-2c0,0,0,0,0,0C-158.9,32-158.9,32-158.8,32L-158.8,32z" fill="#CDA985"/></g><path d="M-158,40.7c19.1,0,18.2,10,18.3,11.2c0.2,2.6,1.8,5.5,1.6,8.3c-0.7,10.2-4.8,22.5-7.8,26.9    c-4,5.9-10.1,6.9-12.8,6.9s-9.1-1-13.1-6.9c-3.8-5.6-8.6-23.2-7.5-35.2C-179.3,50.7-177.1,40.7-158,40.7z" fill="#F2CEA5"/><path d="M-162.7,84c-0.2,0-0.4,0.3-0.3,0.5c0.8,1.5,2.2,2.3,4,2.5c1.9,0.1,3.9-0.9,4.9-2.5c0.1-0.2,0-0.5-0.2-0.5    L-162.7,84z" fill="#A3705F"/><path d="M-150,70c1.1,0,2-0.9,2-2s-0.9-2-2-2s-2,0.9-2,2S-151.1,70-150,70z M-168,70c1.1,0,2-0.9,2-2s-0.9-2-2-2    s-2,0.9-2,2S-169.1,70-168,70z" fill="#262626"/><path d="M-154.8,64.2l-1.6-1.2c1.5-1.9,4-3,7-3c0,0,0.1,0,0.1,0c3.8,0,5.4,1.3,5.5,1.4l-1.3,1.5c0,0-1.3-1-4.3-1    C-150.9,62-153.3,62.4-154.8,64.2z" fill="#CC9872"/><path d="M-163.1,63.2c-1.5-1.9-3.8-2.3-5.6-2.2c-3,0-4.3,1-4.3,1l-1.3-1.5c0.2-0.1,1.8-1.4,5.5-1.4    c3,0,5.6,1,7.2,3L-163.1,63.2z" fill="#CC9872"/><path d="M-157.2,78.1c-1.9-2.5-2.5-6.8-1.6-11.6l2,0.4c-0.8,4.1-0.4,8,1.2,10L-157.2,78.1z" fill="#BB8660"/><path d="M-173.9,67.5c0.2-0.1,0.6-0.3,1-0.5c1.3-0.5,2.9-0.9,5-0.9c2.1,0,3.8,0.3,5,0.9c0.5,0.2,0.8,0.4,1,0.6    c0,0.9-0.1,2-0.5,3.1c-0.8,2.1-2.5,3.3-5.5,3.3c-3,0-4.7-1.2-5.5-3.3C-173.8,69.6-173.9,68.4-173.9,67.5 M-159.8,68h1.9    c0.6,0,1-0.4,1-1s-0.4-1-1-1h-3l0.7,0.3c-0.3-0.3-0.9-0.7-1.9-1.2c-1.5-0.7-3.5-1-5.8-1c-2.3,0-4.3,0.4-5.7,1    c-1,0.4-1.6,0.8-1.9,1.2l0.7-0.3h-3c-0.6,0-1,0.4-1,1s0.4,1,1,1h1.9c0,1.1,0.2,2.2,0.7,3.3c1.1,2.8,3.5,4.6,7.4,4.6    c3.8,0,6.3-1.7,7.4-4.6C-160,70.2-159.8,69-159.8,68L-159.8,68z M-155.9,67.5c0.2-0.1,0.6-0.3,1-0.5c1.3-0.5,2.9-0.9,5-0.9    c2.1,0,3.8,0.3,5,0.9c0.5,0.2,0.8,0.4,1,0.6c0,0.9-0.1,2-0.5,3.1c-0.8,2.1-2.5,3.3-5.5,3.3c-3,0-4.7-1.2-5.5-3.3    C-155.8,69.6-155.9,68.4-155.9,67.5L-155.9,67.5z M-139.9,68c0.6,0,1-0.4,1-1s-0.4-1-1-1h-3l0.7,0.3c-0.3-0.3-0.9-0.7-1.9-1.2    c-1.5-0.7-3.5-1-5.8-1c-2.3,0-4.3,0.4-5.7,1c-1,0.4-1.6,0.8-1.9,1.2l0.7-0.3h-3c-0.6,0-1,0.4-1,1s0.4,1,1,1h1.9    c0,1.1,0.2,2.2,0.7,3.3c1.1,2.8,3.5,4.6,7.4,4.6c3.8,0,6.3-1.7,7.4-4.6c0.5-1.1,0.6-2.3,0.7-3.4H-139.9L-139.9,68z" fill="#1E1F24"/><circle cx="-162" cy="41" fill="#DDE4EA" r="10"/><path d="M-178.8,65.6c0,0-9.4-19,12.2-27.3s26.4,7,27.7,11c1.5,5,0.5,13.3,0.5,13.3S-143.8,47-152.9,47    c-2,3.2-5.2,7-15.8,7S-178.8,65.6-178.8,65.6z" fill="#FFFFFF"/></g></svg>