<?xml version="1.0" ?><!DOCTYPE svg  PUBLIC '-//W3C//DTD SVG 1.1//EN'  'http://www.w3.org/Graphics/SVG/1.1/DTD/svg11.dtd'><svg enable-background="new -27 24 100 100" id="female1" version="1.1" viewBox="-27 24 100 100" xml:space="preserve" xmlns="http://www.w3.org/2000/svg" xmlns:sketch="http://www.bohemiancoding.com/sketch/ns" xmlns:xlink="http://www.w3.org/1999/xlink"><g><rect fill="#F5EEE5" height="100" width="100" x="-27" y="24"/><rect fill="#D98C21" height="43" width="31" x="-3" y="65"/><rect fill="#CC751F" height="47" width="31" x="18" y="61"/><path d="M36,95.9c0,4,4.7,5.2,7.1,5.8c7.6,2,22.8,5.9,22.8,5.9c3.2,1.1,5.7,3.5,7.1,6.6v9.8H-27v-9.8    c1.3-3.1,3.9-5.5,7.1-6.6c0,0,15.2-3.9,22.8-5.9c2.4-0.6,7.1-1.8,7.1-5.8c0-4,0-10.9,0-10.9h26C36,85,36,91.9,36,95.9z" fill="#E6C19C"/><g><defs><path d="M36,95.9c0,4,4.7,5.2,7.1,5.8c7.6,2,22.8,5.9,22.8,5.9c3.2,1.1,5.7,3.5,7.1,6.6v9.8H-27v-9.8      c1.3-3.1,3.9-5.5,7.1-6.6c0,0,15.2-3.9,22.8-5.9c2.4-0.6,7.1-1.8,7.1-5.8c0-4,0-10.9,0-10.9h26C36,85,36,91.9,36,95.9z" id="SVGID_1_"/></defs><clipPath id="SVGID_2_"><use overflow="visible" xlink:href="#SVGID_1_"/></clipPath><path clip-path="url(#SVGID_2_)" d="M23.2,35l0.2,0l0,0c3.3,0,8.2,0.2,11.4,2c3.3,1.9,7.3,5.6,8.5,12.1     c2.4,13.7-2.1,35.4-6.3,42.4c-4,6.7-9.8,9.2-13.5,9.4l-0.1,0l-0.2,0l-0.2,0l-0.1,0c-3.7-0.2-9.5-2.7-13.5-9.4     c-4.2-7-8.7-28.7-6.3-42.4c1.2-6.5,5.2-10.2,8.5-12.1c3.2-1.8,8.1-2,11.4-2l0,0L23.2,35z" fill="#D4B08C"/><path clip-path="url(#SVGID_2_)" d="M-27,82H73v42H-27V82z M23,113c12.1,0,20.8-14.1,20.8-14.1S33.9,83,23,83     S2.2,98.9,2.2,98.9S10.9,113,23,113z" fill="#6B363E"/><g clip-path="url(#SVGID_2_)"><defs><path d="M-27,82H73v42H-27V82z M23,113c12.1,0,20.8-14.1,20.8-14.1S33.9,83,23,83S2.2,98.9,2.2,98.9       S10.9,113,23,113z" id="SVGID_3_"/></defs><clipPath id="SVGID_4_"><use overflow="visible" xlink:href="#SVGID_3_"/></clipPath><path clip-path="url(#SVGID_4_)" d="M45.4,101.7c-1.3,10-9.3,17.3-9.3,17.3s-8.2-7-10.2-7.6      c12.7-7.6,17.1-12,17.1-12S46.6,91.7,45.4,101.7z M0.7,101.7C2,111.8,10,119,10,119s8.2-7,10.2-7.6c-12.7-7.6-17.1-12-17.1-12      S-0.5,91.7,0.7,101.7z" fill="#FFFFFF"/></g></g><path d="M23,40c19.1,0,20.7,13.8,20.8,15.1c1.1,11.9-3,28.1-6.8,33.7c-4,5.9-9.8,8.1-13.5,8.3c-0.2,0-0.2,0-0.3,0    L23,97c-3.8-0.2-9.6-2.4-13.6-8.3c-3.8-5.6-7.9-21.8-6.8-33.8C2.7,53.7,3.9,40,23,40z" fill="#F2CEA5"/><path d="M18.8,85c-0.2,0-0.4,0.4-0.3,0.7c0.9,2.1,2.3,3.3,4.2,3.4c2,0.2,4.1-1.2,5.2-3.4c0.1-0.3,0-0.7-0.3-0.7    L18.8,85z" fill="#A3705F"/><circle cx="32" cy="69" fill="#262626" r="2"/><circle cx="14" cy="69" fill="#262626" r="2"/><path d="M18.9,66.2c-1.5-1.9-3.8-2.3-5.6-2.2c-3,0-4.3,1-4.3,1l-1.3-1.5C8,63.3,9.6,62,13.4,62c3,0,5.6,1,7.2,3    L18.9,66.2z" fill="#CC9872"/><path d="M26,79.4c-1.3-1.7-3.4-5.4-2.3-10.9c0.8-4.1,4-6.5,8.6-6.5c0,0,0.1,0,0.1,0c3.8,0,5.4,1.3,5.5,1.4L36.8,65    l0.6-0.8L36.8,65c0,0-1.3-1-4.3-1c-2.1,0-5.9,0.6-6.7,4.9c-1,4.7,0.8,7.8,1.9,9.3L26,79.4z" fill="#BB8660"/><path d="M-3,69.3c2.4-0.9,7.2-3.5,12-11.9c6.8-12,17.2-6.5,20.5-2.6c0.4,0.4,0.9,0.2,0.9,0.2s8.6-3.7,12,3.8    c2.5,5.5,3.9,7.1,6.5,8.8v-7.9C49,44.2,39.5,44,39.1,44s-0.7,0-0.9-0.6C37.3,40.5,28,30.9,12.4,37S-3,65-3,65V69.3z" fill="#E6A422"/><g><defs><path d="M-3,69.3c2.4-0.9,7.2-3.5,12-11.9c6.8-12,17.2-6.5,20.5-2.6c0.4,0.4,0.9,0.2,0.9,0.2s8.6-3.7,12,3.8      c2.5,5.5,3.9,7.1,6.5,8.8v-7.9C49,44.2,39.5,44,39.1,44s-0.7,0-0.9-0.6C37.3,40.5,28,30.9,12.4,37S-3,65-3,65V69.3z" id="SVGID_5_"/></defs><clipPath id="SVGID_6_"><use overflow="visible" xlink:href="#SVGID_5_"/></clipPath><path clip-path="url(#SVGID_6_)" d="M29.8,55.6c0,0,3-7.5,9-12.1S50,50.9,50,50.9l0.3,19.6L29.8,55.6z" fill="#D98C21"/></g></g></svg>